<?xml version="1.0" encoding="iso-8859-1"?>
<!-- Generator: Adobe Illustrator 16.0.0, SVG Export Plug-In . SVG Version: 6.00 Build 0)  -->
<!DOCTYPE svg PUBLIC "-//W3C//DTD SVG 1.1//EN" "http://www.w3.org/Graphics/SVG/1.1/DTD/svg11.dtd">
<svg version="1.1" id="Capa_1" xmlns="http://www.w3.org/2000/svg" xmlns:xlink="http://www.w3.org/1999/xlink" x="0px" y="0px"
	 width="26.128px" height="26.128px" viewBox="0 0 26.128 26.128" style="enable-background:new 0 0 26.128 26.128;"
	 xml:space="preserve">
<g>
	<g>
		<path d="M13.755,7.698c-0.062,0.366-0.28,0.627-0.504,0.614c-0.482,1.773-1.932,3.086-3.109,3.143
			c-1.296-0.028-2.574-1.361-3.066-3.145C7.067,8.314,7.06,8.322,7.053,8.324c-0.229,0.039-0.47-0.236-0.532-0.617
			C6.456,7.327,6.59,6.989,6.817,6.948C6.835,6.947,6.853,6.954,6.87,6.956c-0.104-2.747,1.513-4.008,3.322-4.019
			c1.758,0.043,3.149,1.075,3.221,4.01c0.015-0.001,0.025-0.009,0.045-0.007C13.684,6.979,13.818,7.318,13.755,7.698z
			 M26.128,24.457l-1.671,1.67l-6.471-6.47l0.209-0.208l-1.808-1.806c-3.917,3.281-9.782,3.088-13.466-0.597
			c-3.896-3.894-3.896-10.23,0-14.125s10.231-3.894,14.126,0c3.683,3.683,3.875,9.546,0.595,13.469l1.805,1.806l0.209-0.208
			L26.128,24.457z M16.947,14.338c1.984-3.171,1.604-7.41-1.149-10.165c-3.203-3.203-8.416-3.203-11.621,0
			c-2.825,2.828-3.153,7.219-0.989,10.414c0.721-1.581,2.391-2.335,4.508-2.624l1.646,3.218L9.6,13.086l-0.408-0.334h0.899h0.981
			l-0.404,0.332l0.264,2.093l1.639-3.222C14.572,12.227,16.166,12.924,16.947,14.338z"/>
	</g>
</g>
<g>
</g>
<g>
</g>
<g>
</g>
<g>
</g>
<g>
</g>
<g>
</g>
<g>
</g>
<g>
</g>
<g>
</g>
<g>
</g>
<g>
</g>
<g>
</g>
<g>
</g>
<g>
</g>
<g>
</g>
</svg>
